<?xml version="1.0" standalone="no"?>
<!DOCTYPE svg PUBLIC "-//W3C//DTD SVG 20010904//EN"
 "http://www.w3.org/TR/2001/REC-SVG-20010904/DTD/svg10.dtd">
<svg version="1.0" xmlns="http://www.w3.org/2000/svg"
 width="198.000000pt" height="170.000000pt" viewBox="0 0 198.000000 170.000000"
 preserveAspectRatio="xMidYMid meet">

<g transform="translate(0.000000,170.000000) scale(0.100000,-0.100000)"
fill="#000000" stroke="none">
<path d="M197 1025 c6 -18 5 -19 -12 -5 -17 14 -17 14 -4 -7 8 -14 16 -18 20
-11 4 7 8 6 12 -3 3 -8 6 -9 6 -3 1 5 -6 19 -14 30 -15 19 -15 19 -8 -1z"/>
<path d="M1328 1033 c7 -3 16 -2 19 1 4 3 -2 6 -13 5 -11 0 -14 -3 -6 -6z"/>
<path d="M754 1023 c15 -4 16 -7 5 -14 -11 -7 -11 -9 4 -9 9 0 17 -5 17 -11 0
-5 -4 -7 -10 -4 -12 8 -13 -5 -1 -23 6 -10 10 -8 14 9 8 29 -9 59 -31 58 -14
-1 -14 -2 2 -6z"/>
<path d="M630 1010 c0 -5 -6 -10 -14 -10 -8 0 -17 -3 -19 -7 -3 -5 5 -8 17 -8
14 0 23 7 23 18 1 9 0 17 -3 17 -2 0 -4 -4 -4 -10z"/>
<path d="M971 998 c-1 -16 -5 -28 -11 -28 -5 0 -10 -4 -10 -10 0 -5 4 -10 10
-10 12 0 24 44 17 62 -3 7 -6 1 -6 -14z"/>
<path d="M1344 1009 c2 -15 20 -13 24 3 3 10 2 10 -6 -1 -7 -9 -11 -10 -15 -2
-4 7 -5 8 -3 0z"/>
<path d="M1154 993 c-10 -10 -15 -15 -10 -10 16 11 28 8 20 -5 -5 -10 -4 -10
6 -1 7 6 10 17 8 23 -2 8 -10 6 -24 -7z"/>
<path d="M1528 1003 c7 -3 16 -2 19 1 4 3 -2 6 -13 5 -11 0 -14 -3 -6 -6z"/>
<path d="M1370 981 c0 -6 4 -13 10 -16 6 -3 7 1 4 9 -7 18 -14 21 -14 7z"/>
<path d="M200 978 c0 -3 -7 -22 -15 -42 -8 -20 -13 -36 -10 -36 3 0 11 14 17
30 10 29 11 30 25 13 13 -16 13 -15 2 7 -13 27 -19 36 -19 28z"/>
<path d="M1341 964 c0 -11 3 -14 6 -6 3 7 2 16 -1 19 -3 4 -6 -2 -5 -13z"/>
<path d="M550 930 c-17 -22 -29 -40 -27 -40 3 0 20 18 37 40 17 22 29 40 27
40 -3 0 -20 -18 -37 -40z"/>
<path d="M620 950 c-8 -5 -12 -12 -9 -15 4 -3 12 1 19 10 14 17 11 19 -10 5z"/>
<path d="M1108 943 c-18 -21 -31 -43 -25 -43 2 0 13 14 25 30 25 33 24 41 0
13z"/>
<path d="M1182 940 c0 -14 2 -19 5 -12 2 6 2 18 0 25 -3 6 -5 1 -5 -13z"/>
<path d="M1360 954 c0 -6 7 -19 15 -30 8 -10 14 -14 14 -9 0 6 -6 19 -14 29
-8 11 -15 15 -15 10z"/>
<path d="M391 934 c0 -11 3 -14 6 -6 3 7 2 16 -1 19 -3 4 -6 -2 -5 -13z"/>
<path d="M1761 934 c0 -11 3 -14 6 -6 3 7 2 16 -1 19 -3 4 -6 -2 -5 -13z"/>
<path d="M936 924 c-9 -8 -16 -22 -16 -30 0 -8 -5 -14 -11 -14 -5 0 -7 -4 -4
-10 3 -5 2 -10 -2 -10 -5 0 -17 -14 -27 -30 -9 -17 -29 -42 -44 -57 -19 -18
-21 -22 -5 -12 24 16 103 118 103 133 0 5 7 18 17 28 20 22 11 24 -11 2z"/>
<path d="M1330 926 c0 -8 4 -17 9 -20 5 -4 7 3 4 14 -6 23 -13 26 -13 6z"/>
<path d="M1670 888 c-24 -27 -25 -32 -2 -49 16 -13 16 -12 3 4 -9 11 -11 21
-5 25 14 11 37 42 31 42 -4 0 -15 -10 -27 -22z"/>
<path d="M381 893 c0 -6 -4 -20 -7 -30 -5 -14 -4 -15 5 -7 7 7 11 20 8 30 -3
11 -5 14 -6 7z"/>
<path d="M610 891 c0 -5 5 -13 10 -16 6 -3 10 -2 10 4 0 5 -4 13 -10 16 -5 3
-10 2 -10 -4z"/>
<path d="M794 876 c-3 -8 -2 -22 3 -31 8 -13 10 -10 10 14 0 34 -5 39 -13 17z"/>
<path d="M1057 872 c-10 -10 -14 -22 -10 -27 5 -4 -6 -5 -24 -2 -20 4 -35 2
-39 -5 -5 -7 -2 -9 8 -6 20 8 47 -9 32 -19 -11 -8 -38 -53 -31 -53 2 0 18 20
36 45 18 25 29 45 25 45 -4 0 1 9 11 20 10 11 16 20 13 20 -3 0 -12 -8 -21
-18z"/>
<path d="M1417 855 c3 -22 9 -47 14 -55 5 -9 6 2 2 25 -3 22 -9 47 -14 55 -5
9 -6 -2 -2 -25z"/>
<path d="M1778 883 c7 -3 16 -2 19 1 4 3 -2 6 -13 5 -11 0 -14 -3 -6 -6z"/>
<path d="M497 849 c7 -7 15 -10 18 -7 3 3 -2 9 -12 12 -14 6 -15 5 -6 -5z"/>
<path d="M1321 844 c0 -11 3 -14 6 -6 3 7 2 16 -1 19 -3 4 -6 -2 -5 -13z"/>
<path d="M273 824 c2 -26 27 -48 27 -24 0 6 -4 8 -10 5 -5 -3 -10 -2 -10 4 0
5 5 11 11 13 7 2 5 8 -4 17 -14 11 -16 9 -14 -15z"/>
<path d="M468 837 c12 -7 19 -17 15 -22 -4 -4 -2 -5 6 0 12 7 11 10 -4 22 -11
7 -24 13 -29 13 -6 -1 -1 -6 12 -13z"/>
<path d="M580 840 c0 -5 5 -10 11 -10 5 0 7 5 4 10 -3 6 -8 10 -11 10 -2 0 -4
-4 -4 -10z"/>
<path d="M1165 840 c3 -5 11 -10 16 -10 6 0 7 5 4 10 -3 6 -11 10 -16 10 -6 0
-7 -4 -4 -10z"/>
<path d="M820 824 c0 -9 -5 -12 -12 -8 -10 6 -10 5 -1 -8 7 -8 11 -18 8 -21
-3 -4 -2 -5 2 -2 9 7 16 55 8 55 -3 0 -5 -7 -5 -16z"/>
<path d="M1108 833 c7 -3 16 -2 19 1 4 3 -2 6 -13 5 -11 0 -14 -3 -6 -6z"/>
<path d="M1628 833 c7 -3 16 -2 19 1 4 3 -2 6 -13 5 -11 0 -14 -3 -6 -6z"/>
<path d="M1770 836 c0 -2 9 -6 20 -9 11 -3 18 -1 14 4 -5 9 -34 13 -34 5z"/>
<path d="M630 823 c0 -5 8 -17 17 -28 14 -18 15 -18 9 -2 -3 10 -6 23 -6 28 0
5 -4 9 -10 9 -5 0 -10 -3 -10 -7z"/>
<path d="M1623 805 c-6 -6 -8 -18 -3 -24 5 -9 9 -5 13 10 7 28 6 31 -10 14z"/>
<path d="M357 795 c-4 -8 -3 -16 1 -19 4 -3 9 4 9 15 2 23 -3 25 -10 4z"/>
<path d="M1190 801 c0 -5 5 -13 10 -16 6 -3 10 -2 10 4 0 5 -4 13 -10 16 -5 3
-10 2 -10 -4z"/>
<path d="M1305 801 c-3 -5 -1 -12 5 -16 5 -3 10 1 10 9 0 18 -6 21 -15 7z"/>
<path d="M1450 801 c0 -5 5 -13 10 -16 6 -3 10 -2 10 4 0 5 -4 13 -10 16 -5 3
-10 2 -10 -4z"/>
<path d="M447 777 c-3 -8 1 -14 8 -14 7 0 11 6 8 14 -3 7 -6 13 -8 13 -2 0 -5
-6 -8 -13z"/>
<path d="M300 771 c0 -6 4 -13 10 -16 6 -3 7 1 4 9 -7 18 -14 21 -14 7z"/>
<path d="M1186 767 c3 -10 9 -15 12 -12 3 3 0 11 -7 18 -10 9 -11 8 -5 -6z"/>
<path d="M1459 758 c21 -24 41 -29 41 -11 0 4 -3 3 -7 0 -3 -4 -18 3 -32 15
l-26 23 24 -27z"/>
<path d="M1490 770 c-13 -8 -12 -10 3 -10 9 0 17 5 17 10 0 12 -1 12 -20 0z"/>
<path d="M1811 772 c-1 -7 -6 -10 -12 -6 -8 4 -8 1 0 -14 7 -14 17 -19 27 -15
9 3 11 9 6 12 -5 3 -12 13 -15 21 -4 10 -6 11 -6 2z"/>
<path d="M1210 761 c0 -6 4 -13 10 -16 6 -3 7 1 4 9 -7 18 -14 21 -14 7z"/>
<path d="M656 738 c3 -5 10 -6 15 -3 13 9 11 12 -6 12 -8 0 -12 -4 -9 -9z"/>
<path d="M132 673 c3 -17 53 -18 856 -21 847 -2 852 -2 852 18 0 20 -6 20
-856 20 -809 0 -855 -1 -852 -17z"/>
</g>
</svg>
